<mxfile host="app.diagrams.net" agent="Mozilla/5.0 (Windows NT 10.0; Win64; x64) AppleWebKit/537.36 (KHTML, like Gecko) Chrome/135.0.0.0 Safari/537.36" version="26.2.14">
  <diagram id="piDafpqhtRUU5qUU-vj8" name="Page-1">
    <mxGraphModel dx="2491" dy="1369" grid="1" gridSize="10" guides="1" tooltips="1" connect="1" arrows="1" fold="1" page="1" pageScale="1" pageWidth="827" pageHeight="1169" math="0" shadow="0">
      <root>
        <mxCell id="0" />
        <mxCell id="1" parent="0" />
        <mxCell id="LowavjY-TqfCx_Q-BY-E-20" value="" style="group" vertex="1" connectable="0" parent="1">
          <mxGeometry x="20" width="600" height="430" as="geometry" />
        </mxCell>
        <mxCell id="LowavjY-TqfCx_Q-BY-E-17" value="" style="group" vertex="1" connectable="0" parent="LowavjY-TqfCx_Q-BY-E-20">
          <mxGeometry y="30" width="600" height="400" as="geometry" />
        </mxCell>
        <mxCell id="LowavjY-TqfCx_Q-BY-E-1" value="" style="rounded=0;whiteSpace=wrap;html=1;" vertex="1" parent="LowavjY-TqfCx_Q-BY-E-17">
          <mxGeometry width="600" height="400" as="geometry" />
        </mxCell>
        <mxCell id="LowavjY-TqfCx_Q-BY-E-2" value="" style="rounded=1;whiteSpace=wrap;html=1;strokeWidth=2;" vertex="1" parent="LowavjY-TqfCx_Q-BY-E-17">
          <mxGeometry x="215" y="185" width="170" height="30" as="geometry" />
        </mxCell>
        <mxCell id="LowavjY-TqfCx_Q-BY-E-4" value="&lt;font style=&quot;font-size: 16px;&quot;&gt;Username&lt;/font&gt;" style="text;strokeColor=none;fillColor=none;html=1;fontSize=24;fontStyle=1;verticalAlign=middle;align=left;" vertex="1" parent="LowavjY-TqfCx_Q-BY-E-17">
          <mxGeometry x="215" y="145" width="100" height="40" as="geometry" />
        </mxCell>
        <mxCell id="LowavjY-TqfCx_Q-BY-E-5" value="" style="rounded=1;whiteSpace=wrap;html=1;strokeWidth=2;" vertex="1" parent="LowavjY-TqfCx_Q-BY-E-17">
          <mxGeometry x="215" y="255" width="170" height="30" as="geometry" />
        </mxCell>
        <mxCell id="LowavjY-TqfCx_Q-BY-E-6" value="&lt;font style=&quot;font-size: 16px;&quot;&gt;Password&lt;/font&gt;" style="text;strokeColor=none;fillColor=none;html=1;fontSize=24;fontStyle=1;verticalAlign=middle;align=left;" vertex="1" parent="LowavjY-TqfCx_Q-BY-E-17">
          <mxGeometry x="215" y="215" width="100" height="40" as="geometry" />
        </mxCell>
        <mxCell id="LowavjY-TqfCx_Q-BY-E-7" value="" style="whiteSpace=wrap;html=1;aspect=fixed;" vertex="1" parent="LowavjY-TqfCx_Q-BY-E-17">
          <mxGeometry x="255" y="65" width="80" height="80" as="geometry" />
        </mxCell>
        <mxCell id="LowavjY-TqfCx_Q-BY-E-11" value="" style="group;fontStyle=4" vertex="1" connectable="0" parent="LowavjY-TqfCx_Q-BY-E-17">
          <mxGeometry x="220" y="300" width="150" height="30" as="geometry" />
        </mxCell>
        <mxCell id="LowavjY-TqfCx_Q-BY-E-9" value="" style="rounded=1;whiteSpace=wrap;html=1;strokeWidth=2;" vertex="1" parent="LowavjY-TqfCx_Q-BY-E-11">
          <mxGeometry x="4" width="150" height="30" as="geometry" />
        </mxCell>
        <mxCell id="LowavjY-TqfCx_Q-BY-E-10" value="&lt;font style=&quot;font-size: 16px;&quot;&gt;Login&lt;/font&gt;" style="text;strokeColor=none;fillColor=none;html=1;fontSize=24;fontStyle=1;verticalAlign=middle;align=center;" vertex="1" parent="LowavjY-TqfCx_Q-BY-E-11">
          <mxGeometry x="50.88" width="56.25" height="20" as="geometry" />
        </mxCell>
        <mxCell id="LowavjY-TqfCx_Q-BY-E-16" value="&lt;font style=&quot;font-size: 20px;&quot;&gt;LOGO&lt;/font&gt;" style="text;html=1;align=center;verticalAlign=middle;whiteSpace=wrap;rounded=0;" vertex="1" parent="LowavjY-TqfCx_Q-BY-E-17">
          <mxGeometry x="265" y="90" width="60" height="30" as="geometry" />
        </mxCell>
        <mxCell id="LowavjY-TqfCx_Q-BY-E-19" value="Login Page" style="text;strokeColor=none;fillColor=none;html=1;fontSize=24;fontStyle=1;verticalAlign=middle;align=center;" vertex="1" parent="LowavjY-TqfCx_Q-BY-E-20">
          <mxGeometry x="10" width="100" height="40" as="geometry" />
        </mxCell>
        <mxCell id="LowavjY-TqfCx_Q-BY-E-53" value="" style="rounded=0;whiteSpace=wrap;html=1;movable=1;resizable=1;rotatable=1;deletable=1;editable=1;locked=0;connectable=1;" vertex="1" parent="1">
          <mxGeometry x="1280" y="40" width="590" height="600" as="geometry" />
        </mxCell>
        <mxCell id="LowavjY-TqfCx_Q-BY-E-50" value="" style="group" vertex="1" connectable="0" parent="1">
          <mxGeometry x="670" width="590" height="530" as="geometry" />
        </mxCell>
        <mxCell id="LowavjY-TqfCx_Q-BY-E-48" value="" style="group" vertex="1" connectable="0" parent="LowavjY-TqfCx_Q-BY-E-50">
          <mxGeometry y="40" width="590" height="490" as="geometry" />
        </mxCell>
        <mxCell id="LowavjY-TqfCx_Q-BY-E-21" value="" style="rounded=0;whiteSpace=wrap;html=1;" vertex="1" parent="LowavjY-TqfCx_Q-BY-E-48">
          <mxGeometry width="590" height="490" as="geometry" />
        </mxCell>
        <mxCell id="LowavjY-TqfCx_Q-BY-E-23" value="Title" style="text;strokeColor=none;fillColor=none;html=1;fontSize=24;fontStyle=1;verticalAlign=middle;align=center;" vertex="1" parent="LowavjY-TqfCx_Q-BY-E-48">
          <mxGeometry y="10" width="100" height="40" as="geometry" />
        </mxCell>
        <mxCell id="LowavjY-TqfCx_Q-BY-E-30" value="" style="group" vertex="1" connectable="0" parent="LowavjY-TqfCx_Q-BY-E-48">
          <mxGeometry x="420" y="15" width="66.88" height="30" as="geometry" />
        </mxCell>
        <mxCell id="LowavjY-TqfCx_Q-BY-E-28" value="" style="rounded=1;whiteSpace=wrap;html=1;strokeWidth=2;" vertex="1" parent="LowavjY-TqfCx_Q-BY-E-30">
          <mxGeometry width="66.88" height="30" as="geometry" />
        </mxCell>
        <mxCell id="LowavjY-TqfCx_Q-BY-E-29" value="&lt;font style=&quot;font-size: 16px;&quot;&gt;Daftar&lt;/font&gt;" style="text;strokeColor=none;fillColor=none;html=1;fontSize=24;fontStyle=1;verticalAlign=middle;align=center;" vertex="1" parent="LowavjY-TqfCx_Q-BY-E-30">
          <mxGeometry x="5.310000000000059" y="4" width="56.25" height="20" as="geometry" />
        </mxCell>
        <mxCell id="LowavjY-TqfCx_Q-BY-E-31" value="" style="group" vertex="1" connectable="0" parent="LowavjY-TqfCx_Q-BY-E-48">
          <mxGeometry x="503.12" y="15" width="66.88" height="30" as="geometry" />
        </mxCell>
        <mxCell id="LowavjY-TqfCx_Q-BY-E-26" value="" style="rounded=1;whiteSpace=wrap;html=1;strokeWidth=2;" vertex="1" parent="LowavjY-TqfCx_Q-BY-E-31">
          <mxGeometry width="66.88" height="30" as="geometry" />
        </mxCell>
        <mxCell id="LowavjY-TqfCx_Q-BY-E-27" value="&lt;font style=&quot;font-size: 16px;&quot;&gt;Login&lt;/font&gt;" style="text;strokeColor=none;fillColor=none;html=1;fontSize=24;fontStyle=1;verticalAlign=middle;align=center;" vertex="1" parent="LowavjY-TqfCx_Q-BY-E-31">
          <mxGeometry x="5.32000000000005" y="3" width="56.25" height="20" as="geometry" />
        </mxCell>
        <mxCell id="LowavjY-TqfCx_Q-BY-E-32" value="" style="rounded=0;whiteSpace=wrap;html=1;glass=0;shadow=0;" vertex="1" parent="LowavjY-TqfCx_Q-BY-E-48">
          <mxGeometry y="60" width="590" height="170" as="geometry" />
        </mxCell>
        <mxCell id="LowavjY-TqfCx_Q-BY-E-33" value="" style="endArrow=none;html=1;rounded=0;exitX=0;exitY=1;exitDx=0;exitDy=0;entryX=0.997;entryY=0.047;entryDx=0;entryDy=0;entryPerimeter=0;" edge="1" parent="LowavjY-TqfCx_Q-BY-E-48" source="LowavjY-TqfCx_Q-BY-E-32" target="LowavjY-TqfCx_Q-BY-E-32">
          <mxGeometry width="50" height="50" relative="1" as="geometry">
            <mxPoint x="200" y="220" as="sourcePoint" />
            <mxPoint x="250" y="170" as="targetPoint" />
            <Array as="points">
              <mxPoint x="590" y="60" />
            </Array>
          </mxGeometry>
        </mxCell>
        <mxCell id="LowavjY-TqfCx_Q-BY-E-34" value="Gambar Carousel" style="text;strokeColor=none;fillColor=none;html=1;fontSize=24;fontStyle=1;verticalAlign=middle;align=center;" vertex="1" parent="LowavjY-TqfCx_Q-BY-E-48">
          <mxGeometry x="245" y="125" width="100" height="40" as="geometry" />
        </mxCell>
        <mxCell id="LowavjY-TqfCx_Q-BY-E-36" value="" style="rounded=1;whiteSpace=wrap;html=1;" vertex="1" parent="LowavjY-TqfCx_Q-BY-E-48">
          <mxGeometry x="70" y="290" width="140" height="60" as="geometry" />
        </mxCell>
        <mxCell id="LowavjY-TqfCx_Q-BY-E-37" value="&lt;font style=&quot;font-size: 18px;&quot;&gt;Hasil Periksa&lt;/font&gt;" style="text;strokeColor=none;fillColor=none;html=1;fontSize=24;fontStyle=1;verticalAlign=middle;align=center;" vertex="1" parent="LowavjY-TqfCx_Q-BY-E-48">
          <mxGeometry x="90" y="300" width="100" height="40" as="geometry" />
        </mxCell>
        <mxCell id="LowavjY-TqfCx_Q-BY-E-38" value="" style="rounded=1;whiteSpace=wrap;html=1;" vertex="1" parent="LowavjY-TqfCx_Q-BY-E-48">
          <mxGeometry x="225" y="290" width="140" height="60" as="geometry" />
        </mxCell>
        <mxCell id="LowavjY-TqfCx_Q-BY-E-39" value="&lt;font style=&quot;font-size: 18px;&quot;&gt;Daftar Online&lt;/font&gt;" style="text;strokeColor=none;fillColor=none;html=1;fontSize=24;fontStyle=1;verticalAlign=middle;align=center;" vertex="1" parent="LowavjY-TqfCx_Q-BY-E-48">
          <mxGeometry x="245" y="300" width="100" height="40" as="geometry" />
        </mxCell>
        <mxCell id="LowavjY-TqfCx_Q-BY-E-40" value="" style="rounded=1;whiteSpace=wrap;html=1;" vertex="1" parent="LowavjY-TqfCx_Q-BY-E-48">
          <mxGeometry x="380" y="290" width="140" height="60" as="geometry" />
        </mxCell>
        <mxCell id="LowavjY-TqfCx_Q-BY-E-41" value="&lt;font style=&quot;font-size: 18px;&quot;&gt;Info Kamar&lt;/font&gt;" style="text;strokeColor=none;fillColor=none;html=1;fontSize=24;fontStyle=1;verticalAlign=middle;align=center;" vertex="1" parent="LowavjY-TqfCx_Q-BY-E-48">
          <mxGeometry x="400" y="300" width="100" height="40" as="geometry" />
        </mxCell>
        <mxCell id="LowavjY-TqfCx_Q-BY-E-42" value="" style="rounded=1;whiteSpace=wrap;html=1;" vertex="1" parent="LowavjY-TqfCx_Q-BY-E-48">
          <mxGeometry x="70" y="360" width="140" height="60" as="geometry" />
        </mxCell>
        <mxCell id="LowavjY-TqfCx_Q-BY-E-43" value="&lt;font style=&quot;font-size: 18px;&quot;&gt;Jadwal Dokter&lt;/font&gt;" style="text;strokeColor=none;fillColor=none;html=1;fontSize=24;fontStyle=1;verticalAlign=middle;align=center;" vertex="1" parent="LowavjY-TqfCx_Q-BY-E-48">
          <mxGeometry x="90" y="370" width="100" height="40" as="geometry" />
        </mxCell>
        <mxCell id="LowavjY-TqfCx_Q-BY-E-44" value="" style="rounded=1;whiteSpace=wrap;html=1;" vertex="1" parent="LowavjY-TqfCx_Q-BY-E-48">
          <mxGeometry x="225" y="360" width="140" height="60" as="geometry" />
        </mxCell>
        <mxCell id="LowavjY-TqfCx_Q-BY-E-45" value="&lt;font style=&quot;font-size: 18px;&quot;&gt;Riwayat&lt;/font&gt;" style="text;strokeColor=none;fillColor=none;html=1;fontSize=24;fontStyle=1;verticalAlign=middle;align=center;" vertex="1" parent="LowavjY-TqfCx_Q-BY-E-48">
          <mxGeometry x="245" y="370" width="100" height="40" as="geometry" />
        </mxCell>
        <mxCell id="LowavjY-TqfCx_Q-BY-E-46" value="" style="rounded=1;whiteSpace=wrap;html=1;" vertex="1" parent="LowavjY-TqfCx_Q-BY-E-48">
          <mxGeometry x="380" y="360" width="140" height="60" as="geometry" />
        </mxCell>
        <mxCell id="LowavjY-TqfCx_Q-BY-E-47" value="&lt;font style=&quot;font-size: 18px;&quot;&gt;Pengaduan&lt;/font&gt;" style="text;strokeColor=none;fillColor=none;html=1;fontSize=24;fontStyle=1;verticalAlign=middle;align=center;" vertex="1" parent="LowavjY-TqfCx_Q-BY-E-48">
          <mxGeometry x="400" y="370" width="100" height="40" as="geometry" />
        </mxCell>
        <mxCell id="LowavjY-TqfCx_Q-BY-E-49" value="Landing Page" style="text;strokeColor=none;fillColor=none;html=1;fontSize=24;fontStyle=1;verticalAlign=middle;align=center;" vertex="1" parent="LowavjY-TqfCx_Q-BY-E-50">
          <mxGeometry x="30" width="100" height="40" as="geometry" />
        </mxCell>
        <mxCell id="LowavjY-TqfCx_Q-BY-E-77" value="Daftar Online" style="text;strokeColor=none;fillColor=none;html=1;fontSize=24;fontStyle=1;verticalAlign=middle;align=center;" vertex="1" parent="1">
          <mxGeometry x="1310" width="100" height="40" as="geometry" />
        </mxCell>
        <mxCell id="LowavjY-TqfCx_Q-BY-E-79" value="" style="rounded=1;whiteSpace=wrap;html=1;" vertex="1" parent="1">
          <mxGeometry x="1320" y="160" width="250" height="30" as="geometry" />
        </mxCell>
        <mxCell id="LowavjY-TqfCx_Q-BY-E-80" value="&lt;font style=&quot;font-size: 20px;&quot;&gt;Nama Peserta&lt;/font&gt;" style="text;strokeColor=none;fillColor=none;html=1;fontSize=24;fontStyle=1;verticalAlign=middle;align=left;" vertex="1" parent="1">
          <mxGeometry x="1320" y="120" width="100" height="40" as="geometry" />
        </mxCell>
        <mxCell id="LowavjY-TqfCx_Q-BY-E-81" value="" style="rounded=1;whiteSpace=wrap;html=1;" vertex="1" parent="1">
          <mxGeometry x="1320" y="230" width="250" height="30" as="geometry" />
        </mxCell>
        <mxCell id="LowavjY-TqfCx_Q-BY-E-82" value="&lt;font style=&quot;font-size: 20px;&quot;&gt;Pilih Poli&lt;/font&gt;" style="text;strokeColor=none;fillColor=none;html=1;fontSize=24;fontStyle=1;verticalAlign=middle;align=left;" vertex="1" parent="1">
          <mxGeometry x="1320" y="190" width="100" height="40" as="geometry" />
        </mxCell>
        <mxCell id="LowavjY-TqfCx_Q-BY-E-83" value="" style="rounded=1;whiteSpace=wrap;html=1;" vertex="1" parent="1">
          <mxGeometry x="1320" y="310" width="250" height="30" as="geometry" />
        </mxCell>
        <mxCell id="LowavjY-TqfCx_Q-BY-E-84" value="&lt;font style=&quot;font-size: 20px;&quot;&gt;Pilih Jadwal&lt;/font&gt;" style="text;strokeColor=none;fillColor=none;html=1;fontSize=24;fontStyle=1;verticalAlign=middle;align=left;" vertex="1" parent="1">
          <mxGeometry x="1320" y="270" width="100" height="40" as="geometry" />
        </mxCell>
        <mxCell id="LowavjY-TqfCx_Q-BY-E-85" value="" style="rounded=1;whiteSpace=wrap;html=1;" vertex="1" parent="1">
          <mxGeometry x="1320" y="460" width="250" height="75" as="geometry" />
        </mxCell>
        <mxCell id="LowavjY-TqfCx_Q-BY-E-86" value="&lt;font style=&quot;font-size: 20px;&quot;&gt;Keluhan&lt;/font&gt;" style="text;strokeColor=none;fillColor=none;html=1;fontSize=24;fontStyle=1;verticalAlign=middle;align=left;" vertex="1" parent="1">
          <mxGeometry x="1320" y="420" width="100" height="40" as="geometry" />
        </mxCell>
        <mxCell id="LowavjY-TqfCx_Q-BY-E-54" value="" style="rounded=0;whiteSpace=wrap;html=1;strokeWidth=3;" vertex="1" parent="1">
          <mxGeometry x="1280" y="40" width="590" height="56.72727272727273" as="geometry" />
        </mxCell>
        <mxCell id="LowavjY-TqfCx_Q-BY-E-55" value="Title" style="text;strokeColor=none;fillColor=none;html=1;fontSize=24;fontStyle=1;verticalAlign=middle;align=center;" vertex="1" parent="1">
          <mxGeometry x="1280" y="49.45454545454545" width="100" height="37.81818181818182" as="geometry" />
        </mxCell>
        <mxCell id="LowavjY-TqfCx_Q-BY-E-56" value="" style="group" vertex="1" connectable="0" parent="1">
          <mxGeometry x="1700" y="54.18181818181818" width="66.88" height="28.363636363636363" as="geometry" />
        </mxCell>
        <mxCell id="LowavjY-TqfCx_Q-BY-E-57" value="" style="rounded=1;whiteSpace=wrap;html=1;strokeWidth=2;" vertex="1" parent="LowavjY-TqfCx_Q-BY-E-56">
          <mxGeometry width="66.88" height="28.363636363636363" as="geometry" />
        </mxCell>
        <mxCell id="LowavjY-TqfCx_Q-BY-E-58" value="&lt;font style=&quot;font-size: 16px;&quot;&gt;Daftar&lt;/font&gt;" style="text;strokeColor=none;fillColor=none;html=1;fontSize=24;fontStyle=1;verticalAlign=middle;align=center;" vertex="1" parent="LowavjY-TqfCx_Q-BY-E-56">
          <mxGeometry x="5.310000000000059" y="3.7818181818181817" width="56.25" height="18.90909090909091" as="geometry" />
        </mxCell>
        <mxCell id="LowavjY-TqfCx_Q-BY-E-59" value="" style="group" vertex="1" connectable="0" parent="1">
          <mxGeometry x="1783.12" y="54.18181818181818" width="66.88" height="28.363636363636363" as="geometry" />
        </mxCell>
        <mxCell id="LowavjY-TqfCx_Q-BY-E-60" value="" style="rounded=1;whiteSpace=wrap;html=1;strokeWidth=2;" vertex="1" parent="LowavjY-TqfCx_Q-BY-E-59">
          <mxGeometry width="66.88" height="28.363636363636363" as="geometry" />
        </mxCell>
        <mxCell id="LowavjY-TqfCx_Q-BY-E-61" value="&lt;font style=&quot;font-size: 16px;&quot;&gt;Login&lt;/font&gt;" style="text;strokeColor=none;fillColor=none;html=1;fontSize=24;fontStyle=1;verticalAlign=middle;align=center;" vertex="1" parent="LowavjY-TqfCx_Q-BY-E-59">
          <mxGeometry x="5.32000000000005" y="2.836363636363637" width="56.25" height="18.90909090909091" as="geometry" />
        </mxCell>
        <mxCell id="LowavjY-TqfCx_Q-BY-E-88" value="" style="rounded=0;whiteSpace=wrap;html=1;" vertex="1" parent="1">
          <mxGeometry x="1620" y="153.45454545454544" width="210" height="132.36363636363637" as="geometry" />
        </mxCell>
        <mxCell id="LowavjY-TqfCx_Q-BY-E-89" value="&lt;font style=&quot;font-size: 20px;&quot;&gt;NO ANTRIAN&lt;/font&gt;" style="text;strokeColor=none;fillColor=none;html=1;fontSize=24;fontStyle=1;verticalAlign=middle;align=center;" vertex="1" parent="1">
          <mxGeometry x="1675" y="200.72727272727272" width="100" height="37.81818181818182" as="geometry" />
        </mxCell>
        <mxCell id="LowavjY-TqfCx_Q-BY-E-93" value="" style="group" vertex="1" connectable="0" parent="1">
          <mxGeometry x="1320" y="550.0027272727273" width="250" height="37.81818181818181" as="geometry" />
        </mxCell>
        <mxCell id="LowavjY-TqfCx_Q-BY-E-78" value="" style="rounded=1;whiteSpace=wrap;html=1;" vertex="1" parent="LowavjY-TqfCx_Q-BY-E-93">
          <mxGeometry y="4.727272727272748" width="250" height="28.363636363636363" as="geometry" />
        </mxCell>
        <mxCell id="LowavjY-TqfCx_Q-BY-E-87" value="&lt;font style=&quot;font-size: 20px;&quot;&gt;Daftar&lt;/font&gt;" style="text;strokeColor=none;fillColor=none;html=1;fontSize=24;fontStyle=1;verticalAlign=middle;align=center;" vertex="1" parent="LowavjY-TqfCx_Q-BY-E-93">
          <mxGeometry x="75" width="100" height="37.81818181818182" as="geometry" />
        </mxCell>
        <mxCell id="LowavjY-TqfCx_Q-BY-E-94" value="" style="rounded=1;whiteSpace=wrap;html=1;" vertex="1" parent="1">
          <mxGeometry x="1320" y="385" width="250" height="30" as="geometry" />
        </mxCell>
        <mxCell id="LowavjY-TqfCx_Q-BY-E-95" value="&lt;font style=&quot;font-size: 20px;&quot;&gt;Pilih Dokter&lt;/font&gt;" style="text;strokeColor=none;fillColor=none;html=1;fontSize=24;fontStyle=1;verticalAlign=middle;align=left;" vertex="1" parent="1">
          <mxGeometry x="1320" y="345" width="100" height="40" as="geometry" />
        </mxCell>
        <mxCell id="LowavjY-TqfCx_Q-BY-E-101" value="" style="rounded=0;whiteSpace=wrap;html=1;movable=1;resizable=1;rotatable=1;deletable=1;editable=1;locked=0;connectable=1;" vertex="1" parent="1">
          <mxGeometry x="25" y="520" width="590" height="600" as="geometry" />
        </mxCell>
        <mxCell id="LowavjY-TqfCx_Q-BY-E-102" value="Jadwal Dokter" style="text;strokeColor=none;fillColor=none;html=1;fontSize=24;fontStyle=1;verticalAlign=middle;align=center;" vertex="1" parent="1">
          <mxGeometry x="55" y="480" width="100" height="40" as="geometry" />
        </mxCell>
        <mxCell id="LowavjY-TqfCx_Q-BY-E-111" value="" style="rounded=0;whiteSpace=wrap;html=1;strokeWidth=3;" vertex="1" parent="1">
          <mxGeometry x="25" y="520" width="590" height="56.72727272727273" as="geometry" />
        </mxCell>
        <mxCell id="LowavjY-TqfCx_Q-BY-E-112" value="Title" style="text;strokeColor=none;fillColor=none;html=1;fontSize=24;fontStyle=1;verticalAlign=middle;align=center;" vertex="1" parent="1">
          <mxGeometry x="25" y="529.4545454545455" width="100" height="37.81818181818182" as="geometry" />
        </mxCell>
        <mxCell id="LowavjY-TqfCx_Q-BY-E-113" value="" style="group" vertex="1" connectable="0" parent="1">
          <mxGeometry x="445" y="534.1818181818182" width="66.88" height="28.363636363636363" as="geometry" />
        </mxCell>
        <mxCell id="LowavjY-TqfCx_Q-BY-E-114" value="" style="rounded=1;whiteSpace=wrap;html=1;strokeWidth=2;" vertex="1" parent="LowavjY-TqfCx_Q-BY-E-113">
          <mxGeometry width="66.88" height="28.363636363636363" as="geometry" />
        </mxCell>
        <mxCell id="LowavjY-TqfCx_Q-BY-E-115" value="&lt;font style=&quot;font-size: 16px;&quot;&gt;Daftar&lt;/font&gt;" style="text;strokeColor=none;fillColor=none;html=1;fontSize=24;fontStyle=1;verticalAlign=middle;align=center;" vertex="1" parent="LowavjY-TqfCx_Q-BY-E-113">
          <mxGeometry x="5.310000000000059" y="3.7818181818181817" width="56.25" height="18.90909090909091" as="geometry" />
        </mxCell>
        <mxCell id="LowavjY-TqfCx_Q-BY-E-116" value="" style="group" vertex="1" connectable="0" parent="1">
          <mxGeometry x="528.1199999999999" y="534.1818181818182" width="66.88" height="28.363636363636363" as="geometry" />
        </mxCell>
        <mxCell id="LowavjY-TqfCx_Q-BY-E-117" value="" style="rounded=1;whiteSpace=wrap;html=1;strokeWidth=2;" vertex="1" parent="LowavjY-TqfCx_Q-BY-E-116">
          <mxGeometry width="66.88" height="28.363636363636363" as="geometry" />
        </mxCell>
        <mxCell id="LowavjY-TqfCx_Q-BY-E-118" value="&lt;font style=&quot;font-size: 16px;&quot;&gt;Login&lt;/font&gt;" style="text;strokeColor=none;fillColor=none;html=1;fontSize=24;fontStyle=1;verticalAlign=middle;align=center;" vertex="1" parent="LowavjY-TqfCx_Q-BY-E-116">
          <mxGeometry x="5.32000000000005" y="2.836363636363637" width="56.25" height="18.90909090909091" as="geometry" />
        </mxCell>
        <mxCell id="LowavjY-TqfCx_Q-BY-E-128" value="Jadwal Praktek Dokter" style="text;strokeColor=none;fillColor=none;html=1;fontSize=24;fontStyle=1;verticalAlign=middle;align=center;" vertex="1" parent="1">
          <mxGeometry x="270" y="600" width="100" height="40" as="geometry" />
        </mxCell>
        <mxCell id="LowavjY-TqfCx_Q-BY-E-132" value="" style="group" vertex="1" connectable="0" parent="1">
          <mxGeometry x="70" y="660" width="230" height="130" as="geometry" />
        </mxCell>
        <mxCell id="LowavjY-TqfCx_Q-BY-E-137" value="" style="group" vertex="1" connectable="0" parent="LowavjY-TqfCx_Q-BY-E-132">
          <mxGeometry width="230" height="130" as="geometry" />
        </mxCell>
        <mxCell id="LowavjY-TqfCx_Q-BY-E-129" value="" style="rounded=1;whiteSpace=wrap;html=1;" vertex="1" parent="LowavjY-TqfCx_Q-BY-E-137">
          <mxGeometry width="230" height="130" as="geometry" />
        </mxCell>
        <mxCell id="LowavjY-TqfCx_Q-BY-E-130" value="dr Abc" style="text;strokeColor=none;fillColor=none;html=1;fontSize=24;fontStyle=1;verticalAlign=middle;align=center;" vertex="1" parent="LowavjY-TqfCx_Q-BY-E-137">
          <mxGeometry x="65" y="10" width="100" height="40" as="geometry" />
        </mxCell>
        <mxCell id="LowavjY-TqfCx_Q-BY-E-131" value="orem ipsum lorem ipsumorem ipsum lorem ipsumorem ipsum lorem ipsumorem ipsum lorem ipsumorem ipsum lorem ipsumorem ipsum lorem ipsum" style="text;html=1;align=center;verticalAlign=middle;whiteSpace=wrap;rounded=0;" vertex="1" parent="LowavjY-TqfCx_Q-BY-E-137">
          <mxGeometry x="17.5" y="70" width="195" height="30" as="geometry" />
        </mxCell>
        <mxCell id="LowavjY-TqfCx_Q-BY-E-133" value="" style="group" vertex="1" connectable="0" parent="1">
          <mxGeometry x="330" y="660" width="230" height="130" as="geometry" />
        </mxCell>
        <mxCell id="LowavjY-TqfCx_Q-BY-E-134" value="" style="rounded=1;whiteSpace=wrap;html=1;" vertex="1" parent="LowavjY-TqfCx_Q-BY-E-133">
          <mxGeometry width="230" height="130" as="geometry" />
        </mxCell>
        <mxCell id="LowavjY-TqfCx_Q-BY-E-135" value="dr Abc" style="text;strokeColor=none;fillColor=none;html=1;fontSize=24;fontStyle=1;verticalAlign=middle;align=center;" vertex="1" parent="LowavjY-TqfCx_Q-BY-E-133">
          <mxGeometry x="65" y="10" width="100" height="40" as="geometry" />
        </mxCell>
        <mxCell id="LowavjY-TqfCx_Q-BY-E-136" value="orem ipsum lorem ipsumorem ipsum lorem ipsumorem ipsum lorem ipsumorem ipsum lorem ipsumorem ipsum lorem ipsumorem ipsum lorem ipsum" style="text;html=1;align=center;verticalAlign=middle;whiteSpace=wrap;rounded=0;" vertex="1" parent="LowavjY-TqfCx_Q-BY-E-133">
          <mxGeometry x="17.5" y="70" width="195" height="30" as="geometry" />
        </mxCell>
        <mxCell id="LowavjY-TqfCx_Q-BY-E-138" value="" style="group" vertex="1" connectable="0" parent="1">
          <mxGeometry x="70" y="800" width="230" height="130" as="geometry" />
        </mxCell>
        <mxCell id="LowavjY-TqfCx_Q-BY-E-139" value="" style="group" vertex="1" connectable="0" parent="LowavjY-TqfCx_Q-BY-E-138">
          <mxGeometry width="230" height="130" as="geometry" />
        </mxCell>
        <mxCell id="LowavjY-TqfCx_Q-BY-E-140" value="" style="rounded=1;whiteSpace=wrap;html=1;" vertex="1" parent="LowavjY-TqfCx_Q-BY-E-139">
          <mxGeometry width="230" height="130" as="geometry" />
        </mxCell>
        <mxCell id="LowavjY-TqfCx_Q-BY-E-141" value="dr Abc" style="text;strokeColor=none;fillColor=none;html=1;fontSize=24;fontStyle=1;verticalAlign=middle;align=center;" vertex="1" parent="LowavjY-TqfCx_Q-BY-E-139">
          <mxGeometry x="65" y="10" width="100" height="40" as="geometry" />
        </mxCell>
        <mxCell id="LowavjY-TqfCx_Q-BY-E-142" value="orem ipsum lorem ipsumorem ipsum lorem ipsumorem ipsum lorem ipsumorem ipsum lorem ipsumorem ipsum lorem ipsumorem ipsum lorem ipsum" style="text;html=1;align=center;verticalAlign=middle;whiteSpace=wrap;rounded=0;" vertex="1" parent="LowavjY-TqfCx_Q-BY-E-139">
          <mxGeometry x="17.5" y="70" width="195" height="30" as="geometry" />
        </mxCell>
        <mxCell id="LowavjY-TqfCx_Q-BY-E-143" value="" style="group" vertex="1" connectable="0" parent="1">
          <mxGeometry x="330" y="800" width="230" height="130" as="geometry" />
        </mxCell>
        <mxCell id="LowavjY-TqfCx_Q-BY-E-144" value="" style="rounded=1;whiteSpace=wrap;html=1;" vertex="1" parent="LowavjY-TqfCx_Q-BY-E-143">
          <mxGeometry width="230" height="130" as="geometry" />
        </mxCell>
        <mxCell id="LowavjY-TqfCx_Q-BY-E-145" value="dr Abc" style="text;strokeColor=none;fillColor=none;html=1;fontSize=24;fontStyle=1;verticalAlign=middle;align=center;" vertex="1" parent="LowavjY-TqfCx_Q-BY-E-143">
          <mxGeometry x="65" y="10" width="100" height="40" as="geometry" />
        </mxCell>
        <mxCell id="LowavjY-TqfCx_Q-BY-E-146" value="orem ipsum lorem ipsumorem ipsum lorem ipsumorem ipsum lorem ipsumorem ipsum lorem ipsumorem ipsum lorem ipsumorem ipsum lorem ipsum" style="text;html=1;align=center;verticalAlign=middle;whiteSpace=wrap;rounded=0;" vertex="1" parent="LowavjY-TqfCx_Q-BY-E-143">
          <mxGeometry x="17.5" y="70" width="195" height="30" as="geometry" />
        </mxCell>
        <mxCell id="LowavjY-TqfCx_Q-BY-E-147" value="" style="group" vertex="1" connectable="0" parent="1">
          <mxGeometry x="70" y="940" width="230" height="130" as="geometry" />
        </mxCell>
        <mxCell id="LowavjY-TqfCx_Q-BY-E-148" value="" style="group" vertex="1" connectable="0" parent="LowavjY-TqfCx_Q-BY-E-147">
          <mxGeometry width="230" height="130" as="geometry" />
        </mxCell>
        <mxCell id="LowavjY-TqfCx_Q-BY-E-149" value="" style="rounded=1;whiteSpace=wrap;html=1;" vertex="1" parent="LowavjY-TqfCx_Q-BY-E-148">
          <mxGeometry width="230" height="130" as="geometry" />
        </mxCell>
        <mxCell id="LowavjY-TqfCx_Q-BY-E-150" value="dr Abc" style="text;strokeColor=none;fillColor=none;html=1;fontSize=24;fontStyle=1;verticalAlign=middle;align=center;" vertex="1" parent="LowavjY-TqfCx_Q-BY-E-148">
          <mxGeometry x="65" y="10" width="100" height="40" as="geometry" />
        </mxCell>
        <mxCell id="LowavjY-TqfCx_Q-BY-E-151" value="orem ipsum lorem ipsumorem ipsum lorem ipsumorem ipsum lorem ipsumorem ipsum lorem ipsumorem ipsum lorem ipsumorem ipsum lorem ipsum" style="text;html=1;align=center;verticalAlign=middle;whiteSpace=wrap;rounded=0;" vertex="1" parent="LowavjY-TqfCx_Q-BY-E-148">
          <mxGeometry x="17.5" y="70" width="195" height="30" as="geometry" />
        </mxCell>
        <mxCell id="LowavjY-TqfCx_Q-BY-E-152" value="" style="group" vertex="1" connectable="0" parent="1">
          <mxGeometry x="330" y="940" width="230" height="130" as="geometry" />
        </mxCell>
        <mxCell id="LowavjY-TqfCx_Q-BY-E-153" value="" style="rounded=1;whiteSpace=wrap;html=1;" vertex="1" parent="LowavjY-TqfCx_Q-BY-E-152">
          <mxGeometry width="230" height="130" as="geometry" />
        </mxCell>
        <mxCell id="LowavjY-TqfCx_Q-BY-E-154" value="dr Abc" style="text;strokeColor=none;fillColor=none;html=1;fontSize=24;fontStyle=1;verticalAlign=middle;align=center;" vertex="1" parent="LowavjY-TqfCx_Q-BY-E-152">
          <mxGeometry x="65" y="10" width="100" height="40" as="geometry" />
        </mxCell>
        <mxCell id="LowavjY-TqfCx_Q-BY-E-155" value="orem ipsum lorem ipsumorem ipsum lorem ipsumorem ipsum lorem ipsumorem ipsum lorem ipsumorem ipsum lorem ipsumorem ipsum lorem ipsum" style="text;html=1;align=center;verticalAlign=middle;whiteSpace=wrap;rounded=0;" vertex="1" parent="LowavjY-TqfCx_Q-BY-E-152">
          <mxGeometry x="17.5" y="70" width="195" height="30" as="geometry" />
        </mxCell>
      </root>
    </mxGraphModel>
  </diagram>
</mxfile>
